<?xml version="1.0" encoding="UTF-8"?>
<!-- Generator: Adobe Illustrator 15.0.0, SVG Export Plug-In . SVG Version: 6.00 Build 0)  -->
<!DOCTYPE svg PUBLIC "-//W3C//DTD SVG 1.1//EN" "http://www.w3.org/Graphics/SVG/1.1/DTD/svg11.dtd">
<svg version="1.1" id="图层_1" xmlns="http://www.w3.org/2000/svg" xmlns:xlink="http://www.w3.org/1999/xlink" x="0px" y="0px" width="30px" height="30px" style="cursor:pointer;" viewBox="0 0 56.852 56.95" enable-background="new 0 0 56.852 56.95" xml:space="preserve">
<g>
	<path fill="#7BB745" d="M14.951,2.836l0.535-1.703c0,0,2.866,1.44,6.553,1.96c4.541,0.64,7.995-0.013,7.995-0.013   s-2.289,4.504-2.636,9.592c-0.392,5.785,0.691,9.029,0.691,9.029l-0.741-0.269c0,0-6.533-2.2-10.526-9.39   c-2.186-3.941-2.542-7.48-2.542-7.48L14.951,2.836z"/>
	<path fill="#7BB745" d="M0.829,19.792L0,18.21c0,0,3.041-1.013,6.018-3.251c3.671-2.759,5.65-5.658,5.65-5.658   s1.561,4.803,4.918,8.646c3.81,4.366,6.872,5.895,6.872,5.895l-0.712,0.33c0,0-6.182,3.066-14.083,0.807   c-4.333-1.24-7.092-3.49-7.092-3.49L0.829,19.792z"/>
	<path fill="#7BB745" d="M2.8,41.922L1.09,41.39c0,0,1.444-2.87,1.964-6.556c0.637-4.546-0.013-7.996-0.013-7.996   s4.506,2.287,9.59,2.637c5.786,0.393,9.031-0.691,9.031-0.691l-0.269,0.737c0,0-2.205,6.536-9.392,10.53   c-3.939,2.186-7.479,2.546-7.479,2.546L2.8,41.922z"/>
	<path fill="#7BB745" d="M19.598,56.116l-1.583,0.834c0,0-1.005-3.044-3.249-6.021c-2.764-3.664-5.662-5.641-5.662-5.641   s4.804-1.57,8.646-4.92c4.366-3.813,5.896-6.875,5.896-6.875l0.332,0.714c0,0,3.062,6.18,0.806,14.081   c-1.239,4.336-3.488,7.092-3.488,7.092L19.598,56.116z"/>
	<path fill="#7BB745" d="M41.84,54.501l-0.535,1.706c0,0-2.861-1.439-6.553-1.959c-4.543-0.639-7.992,0.01-7.992,0.01   s2.289-4.504,2.637-9.588c0.388-5.785-0.691-9.033-0.691-9.033l0.74,0.27c0,0,6.533,2.207,10.526,9.393   c2.188,3.939,2.544,7.479,2.544,7.479L41.84,54.501z"/>
	<path fill="#7BB745" d="M56.023,37.254l0.829,1.582c0,0-3.047,1.011-6.018,3.244c-3.666,2.763-5.645,5.665-5.645,5.665   s-1.566-4.802-4.918-8.648c-3.815-4.36-6.877-5.89-6.877-5.89l0.715-0.329c0,0,6.178-3.069,14.083-0.808   c4.335,1.234,7.089,3.487,7.089,3.487L56.023,37.254z"/>
	<path fill="#38A9CD" d="M54.17,15.131l1.704,0.529c0,0-1.442,2.863-1.962,6.554c-0.639,4.546,0.013,7.993,0.013,7.993   s-4.501-2.282-9.591-2.635c-5.781-0.393-9.027,0.69-9.027,0.69l0.271-0.735c0,0,2.203-6.539,9.387-10.529   c3.944-2.19,7.479-2.547,7.479-2.547L54.17,15.131z"/>
	<path fill="#7BB745" d="M37.042,0.834L38.62,0c0,0,1.01,3.045,3.25,6.021c2.764,3.662,5.662,5.641,5.662,5.641   s-4.804,1.569-8.643,4.923c-4.369,3.806-5.898,6.868-5.898,6.868l-0.332-0.712c0,0-3.062-6.181-0.801-14.081   c1.234-4.336,3.486-7.092,3.486-7.092L37.042,0.834z"/>
</g>
</svg>