<?xml version="1.0" encoding="UTF-8"?>
<!-- Generator: Adobe Illustrator 15.0.0, SVG Export Plug-In . SVG Version: 6.00 Build 0)  -->
<!DOCTYPE svg PUBLIC "-//W3C//DTD SVG 1.1//EN" "http://www.w3.org/Graphics/SVG/1.1/DTD/svg11.dtd">
<svg version="1.1" id="图层_1" xmlns="http://www.w3.org/2000/svg" xmlns:xlink="http://www.w3.org/1999/xlink" x="0px" y="0px" width="111px" height="30px" viewBox="0 0 199.932 53.39" enable-background="new 0 0 199.932 53.39" xml:space="preserve">
<g id="形状_2_副本_4_3_">
	<g>
		<polygon fill-rule="evenodd" clip-rule="evenodd" fill="#31A0C1" points="159.607,0 149.867,14.054 156.541,52.324 195.865,53.39     199.932,6.066   "/>
	</g>
</g>
<g id="形状_2_副本_5_2_">
	<g>
		<polygon fill-rule="evenodd" clip-rule="evenodd" fill="#7BB745" points="52.542,0.533 45.867,38.804 55.608,52.857     95.933,46.791 97.866,6.466   "/>
	</g>
</g>
<g id="客_3_">
	<g>
		<path fill-rule="evenodd" clip-rule="evenodd" fill="#FFFFFF" d="M75.103,25.992l11.953-4.219v-4.57H61.744l1.406-2.813h-2.285    l-5.977,11.602h2.109l3.867-7.207h23.906v1.758l0.176,0.176c-1.994,0.703-4.043,1.406-6.152,2.109s-4.16,1.406-6.152,2.109    l-11.25-4.57V22.3l8.964,3.691l-15.644,5.801v1.934c2.928-1.055,5.916-2.137,8.964-3.252c3.047-1.111,6.035-2.197,8.965-3.252    l14.063,5.801H57.525L57.35,44.976h30.058V33.375l2.813,1.055V32.32c-2.346-0.936-4.863-1.99-7.559-3.164    C79.964,27.986,77.447,26.931,75.103,25.992z M85.298,43.218H59.459v-8.613h25.839V43.218z M73.873,10.523l-0.703-2.109H71.06    l0.703,2.109H54.361v7.383h2.109v-5.801h31.64v5.801h2.109v-7.383H73.873z"/>
	</g>
</g>
<g id="园_2_">
	<g>
		<path fill-rule="evenodd" clip-rule="evenodd" fill="#FFFFFF" d="M187.791,15.181h-23.906v1.582h23.906V15.181z M158.611,9.556    v34.277h34.629V9.556H158.611z M191.131,42.251h-30.41V11.138h30.41V42.251z M163.885,39.087h2.109    c1.17-2.109,2.43-4.422,3.779-6.943c1.346-2.518,2.605-4.834,3.779-6.943h4.922v12.305h10.195l0.703-1.582h-8.789V25.201h8.789    v-1.582h-27.07v1.582h8.965L163.885,39.087z"/>
	</g>
</g>
<g id="公_3_">
	<g>
		<path fill-rule="evenodd" clip-rule="evenodd" fill="#FFFFFF" d="M132.398,13.951l3.867,10.768h7.779L138.42,8.853    c-0.703-1.934-2.344-2.885-4.922-2.855l-15.426-0.045v6.592h12.129C131.197,12.544,131.93,13.013,132.398,13.951z M112.008,22.212    l4.703-16.172h-7.734L103,24.849h5.318C110.016,24.849,111.246,23.97,112.008,22.212z M137.584,31.617h-8.262l3.691,7.471    c0.527,1.318,0.264,1.979-0.791,1.979h-18.105l13.711-20.699h-9.053l-14.193,21.139c-0.615,3.457,0.484,5.434,3.297,5.932h23.246    c2.373-0.234,3.896-0.951,4.57-2.152l1.23,2.021l7.559-0.045L137.584,31.617z"/>
	</g>
</g>
<g id="极_3_">
	<g>
		<path fill-rule="evenodd" clip-rule="evenodd" fill="#FFFFFF" d="M1.758,16.632H0V44.23c2.929,0.027,4.395-1.055,4.395-3.252    V21.554C4.687,18.566,3.808,16.925,1.758,16.632z M40.781,27.091c1.289-3.164,0.908-5.377-1.143-6.637h-3.691l4.307-8.744    c0.82-2.52,0.146-4.264-2.021-5.23H17.666l-0.088,2.9h-4.922V5.91H6.152V9.38H0.088v5.758h3.076    c1.992,0.117,2.988,1.904,2.988,5.361v26.719l3.252,0.043c2.109,0.029,3.193-0.893,3.252-2.768V15.138h5.361v-2.9h1.318    l-1.23,35.244h6.768L25.4,32.365l3.516,5.932l-3.867,9.186h4.043c1.582,0,2.549-0.352,2.9-1.055l1.318-2.594l1.67,3.34    l6.504,0.045L36.65,37.99L40.781,27.091z M32.08,31.222l-1.406-2.637H25.4l0.439-16.348h6.504l-3.779,8.217v5.713h5.537    L32.08,31.222z M15.381,21.027c-0.527,0-0.982,0.82-1.362,2.461c-0.381,1.641-0.571,3.588-0.571,5.844    c0,2.314,0.19,4.293,0.571,5.934c0.38,1.641,0.835,2.461,1.362,2.461s0.981-0.82,1.362-2.461c0.38-1.641,0.571-3.619,0.571-5.934    c0-2.256-0.191-4.203-0.571-5.844C16.362,21.847,15.908,21.027,15.381,21.027z"/>
	</g>
</g>
</svg>